<svg xmlns="http://www.w3.org/2000/svg" viewBox="0 0 166.6875 166.6875">
  <path fill="#f7df1e" d="M0 0h166.6874979v166.6874979H0z"/>
  <g transform="scale(0.26458)">
    <path d="M165.65 526.47375l48.2125-29.1775C223.16375 513.7875 231.625 527.74 251.92 527.74c19.45375 0 31.71875-7.60975 31.71875-37.21v-201.3h59.20375v202.1375c0 61.32-35.94375 89.23125-88.385 89.23125-47.36125 0-74.8525-24.52875-88.8075-54.13M375 520.13l48.20625-27.91125c12.69 20.72375 29.1825 35.9475 58.36125 35.9475 24.53125 0 40.17375-12.26475 40.17375-29.18125 0-20.29875-16.06875-27.48875-43.135-39.32625l-14.7975-6.3475c-42.715-18.18125-71.05-41.0175-71.05-89.2275 0-44.40375 33.83125-78.2375 86.695-78.2375 37.6375 0 64.7025 13.11125 84.15375 47.36625l-46.09625 29.60125c-10.15-18.1825-21.1425-25.37125-38.0575-25.37125-17.33875 0-28.335 10.995-28.335 25.37125 0 17.7625 10.99625 24.9525 36.3675 35.94875l14.8 6.3425c50.325 21.56875 78.66 43.5575 78.66 93.03375 0 53.2875-41.86625 82.465-98.11 82.465-54.97625 0-90.5-26.2175-107.83625-60.47375"/>
  </g>
  <path d="M21.648236 30.914583V15.561694h4.244622q3.206045 0 5.034845 1.580445 1.8288 1.580444 1.8288 4.357511 0 2.777066-1.8288 4.357511-1.8288 1.557867-5.034845 1.557867h-1.083733v3.499555zm3.160889-6.276622h.993422q1.919111 0 2.799644-.767645.903112-.790222.903112-2.370666 0-3.160889-3.702756-3.160889h-.993422zM32.425597 30.914583l6.750756-15.488355h.270933l7.021689 15.488355h-3.318934l-.722488-1.738489h-6.231467l-.722489 1.738489zm4.831644-4.380089h4.041423l-1.106311-2.664178q-.2032-.474133-.428978-1.151466-.225778-.699911-.361245-1.151467l-.135466-.451555q-.451556 1.670755-.903111 2.754488zM48.547541 30.914583V15.561694h4.718756q3.544711 0 5.802489 2.144889 2.280355 2.144889 2.280355 5.531556 0 3.386666-2.257777 5.531555-2.257778 2.144889-5.825067 2.144889zm3.160889-2.777067h1.399822q2.460978 0 3.702756-1.332088 1.264355-1.332089 1.264355-3.567289t-1.264355-3.567289q-1.241778-1.332089-3.702756-1.332089H51.70843zM64.025666 30.914583V15.561694h10.16v2.777067h-6.999111v4.8768h6.163733v2.709333h-6.163733v2.212622h7.3152v2.777067zM85.581796 26.128094l3.18347 4.786489h-3.6576l-2.52871-3.883378q-.42898.06773-.90311.06773h-1.08374v3.815644h-3.160884V15.561694h4.244624q3.2512 0 5.05742 1.512711 1.80622 1.490134 1.80622 4.289778 0 3.431822-2.95769 4.763911zm-4.98969-1.783644h.99343q1.96426 0 2.82222-.677334.88053-.699911.88053-2.302933t-.90311-2.302933q-.88053-.722489-2.79964-.722489h-.99343zM91.277756 30.914583V15.561694h5.93795q2.07716 0 3.27378 1.151467 1.19662 1.128889 1.19662 2.822222 0 2.122311-2.16746 2.822222 3.11573.745067 3.11573 3.815645 0 2.099733-1.39982 3.431822-1.37725 1.309511-3.74791 1.309511zm3.16089-9.685867h2.4384q.76764 0 1.2192-.383822.47413-.4064.47413-1.061155 0-.677334-.4064-1.061156t-1.12889-.383822h-2.59644zm0 6.9088h2.91253q.94827 0 1.51271-.587022.58702-.587022.58702-1.535289 0-.948266-.6096-1.512711-.6096-.587022-1.67075-.587022h-2.73191zM118.108616 28.882583q-2.30293 2.2352-5.64444 2.2352-3.34151 0-5.64445-2.2352-2.30293-2.257778-2.30293-5.644444 0-3.386667 2.30293-5.621867 2.30294-2.257778 5.64445-2.257778t5.64444 2.257778q2.30293 2.2352 2.30293 5.621867 0 3.386666-2.30293 5.644444zm-9.03111-2.032q1.30951 1.444978 3.38667 1.444978 2.07715 0 3.38666-1.444978t1.30951-3.612444q0-2.167467-1.30951-3.612445-1.30951-1.444978-3.38666-1.444978-2.07716 0-3.38667 1.444978t-1.30951 3.612445q0 2.167466 1.30951 3.612444zM131.266516 26.128094l3.18347 4.786489h-3.6576l-2.52871-3.883378q-.42898.06773-.90311.06773h-1.08374v3.815644h-3.16089V15.561694h4.24463q3.2512 0 5.05742 1.512711 1.80622 1.490134 1.80622 4.289778 0 3.431822-2.95769 4.763911zm-4.98969-1.783644h.99343q1.96426 0 2.82222-.677334.88053-.699911.88053-2.302933t-.90311-2.302933q-.88053-.722489-2.79964-.722489h-.99343zM149.267366 31.05005l-7.74418-7.270045q-.33867-.316089-.8128-.835377-.45156-.541867-.74507-.903112l-.27093-.361244q.22578 1.693333.22578 2.799644v6.434667h-2.95769V15.426228h.31609l7.74418 7.270044q.33866.316089.79022.835378.45155.519289.74506.880533l.27094.383822q-.2032-1.738489-.2032-2.799644v-6.434667h2.95769V31.05005z" style="line-height:7.25;-inkscape-font-specification:'Neutra Text Bold'"/>
</svg>
