<svg xmlns="http://www.w3.org/2000/svg" viewBox="0 0 61.6 196.74">
    <defs>
        <style>.background-color-blue-banner{fill:#4a97d0;}.text-color-blue-banner{fill:#f2f1ef;}</style>
    </defs>
    <g id="Layer_2" data-name="Layer 2">
        <g id="Ebene_11" data-name="Ebene 11">
            <rect class="background-color-blue-banner" width="61.6" height="196.74"/>
            <path class="text-color-blue-banner" d="M36.71,174.91a6,6,0,0,0,.39-6.85,3.69,3.69,0,0,0-1.88-1.57v-5.16a9.75,9.75,0,0,1,5.49,3.8,11.17,11.17,0,0,1,1.66,6.19,12.08,12.08,0,0,1-.81,4.54,9.44,9.44,0,0,1-2.29,3.43,10.31,10.31,0,0,1-3.55,2.17,13,13,0,0,1-4.55.76,12.56,12.56,0,0,1-4.46-.78,10.58,10.58,0,0,1-3.57-2.23,10.36,10.36,0,0,1-2.37-3.45,11,11,0,0,1-.87-4.44A10.17,10.17,0,0,1,21,166.57a9.41,9.41,0,0,1,2.83-3.32,11.42,11.42,0,0,1,4-1.88,14.94,14.94,0,0,1,4.75-.41v15.4A5.89,5.89,0,0,0,36.71,174.91Zm-11.24-6.62a4.1,4.1,0,0,0-1.15,3.2,5.2,5.2,0,0,0,.47,2.33A4.56,4.56,0,0,0,26,175.31a4.27,4.27,0,0,0,1.49.78,7,7,0,0,0,1.4.27v-9.54A6.79,6.79,0,0,0,25.47,168.29Z"/>
            <path class="text-color-blue-banner" d="M20.48,151.91h3v-.12a6.74,6.74,0,0,1-2.7-2.89,8.33,8.33,0,0,1-.85-3.64,9.91,9.91,0,0,1,.64-3.86A5.83,5.83,0,0,1,22.31,139a6.81,6.81,0,0,1,2.77-1.22,17.48,17.48,0,0,1,3.61-.35H41.83v5.86H29.77a7.46,7.46,0,0,0-3.94.83,3.2,3.2,0,0,0-1.31,2.93A4.07,4.07,0,0,0,26,150.55c.95.72,2.51,1.07,4.69,1.07H41.83v5.87H20.48Z"/>
            <path class="text-color-blue-banner" d="M20.48,127.42H23.2v-.08a6.52,6.52,0,0,1-2.52-2.73A8.39,8.39,0,0,1,19.9,121a9.33,9.33,0,0,1,1-4.34,8.89,8.89,0,0,1,2.52-3A10.62,10.62,0,0,1,27,111.85a16.5,16.5,0,0,1,4.36-.57,14.87,14.87,0,0,1,4.13.57A10.53,10.53,0,0,1,39,113.61a8.69,8.69,0,0,1,2.44,2.93,8.89,8.89,0,0,1,.91,4.11,8.24,8.24,0,0,1-.81,3.65,6.86,6.86,0,0,1-2.38,2.75v.08H49.3V133H20.48Zm16.93-7.62a4.82,4.82,0,0,0-1.51-1.57,6.26,6.26,0,0,0-2.17-.84,12.35,12.35,0,0,0-2.51-.25,11.88,11.88,0,0,0-2.53.27,6.66,6.66,0,0,0-2.21.89,4.94,4.94,0,0,0-1.56,1.59,4.41,4.41,0,0,0-.6,2.37,4.52,4.52,0,0,0,.6,2.42,4.84,4.84,0,0,0,1.55,1.57,6.27,6.27,0,0,0,2.18.84,12.73,12.73,0,0,0,2.57.25,11.69,11.69,0,0,0,2.51-.27,6.5,6.5,0,0,0,2.17-.87,4.52,4.52,0,0,0,1.51-1.59,5.28,5.28,0,0,0,0-4.81Z"/>
            <path class="text-color-blue-banner" d="M17.17,107.6H12.34v-5.86h4.83Zm3.31-5.86H41.83v5.86H20.48Z"/>
            <path class="text-color-blue-banner" d="M20.48,85.38H24.4v4.3H35a2.86,2.86,0,0,0,2-.5,2.86,2.86,0,0,0,.5-2c0-.33,0-.64,0-1a7.91,7.91,0,0,0-.13-.87h4.55A13.18,13.18,0,0,1,42,87c0,.6,0,1.19,0,1.77a17.61,17.61,0,0,1-.18,2.58,6.41,6.41,0,0,1-.72,2.15A3.87,3.87,0,0,1,39.6,95a5.56,5.56,0,0,1-2.6.53H24.4V99.1H20.48V95.54h-6.4V89.68h6.4Z"/>
        </g>
    </g>
</svg>