<svg xmlns="http://www.w3.org/2000/svg" viewBox="355 340 133 38" role="img" aria-labelledby="sputnik-logo-title">
  <title id="sputnik-logo-title">Sputnik logo</title>
  <path fill="#783E1D" d="M374.1 346.4c0 .2 0 .4-.3.6-.3.2-.5.3-.8.3h-9.5c-2.8 0-4.3.9-4.3 2.6 0 2 1.1 3 3.4 3h6.2c6.5 0 9.7 3.2 9.7 9.8v1c-.2 6.2-3.8 8-11.3 8h-10.5c-.4 0-.6 0-.9-.2-.2-.2-.3-.4-.3-.7v-3c0-.3 0-.5.3-.7.3-.2.5-.3.9-.3h14c2.7 0 4-.8 4-2.5 0-2-1.1-3-1-2.2H367c-9.2-.7-11.6-3.6-11.6-10.9v-1.1c0-5.2 3.8-7.7 11.3-7.7h6.2c.3 0 .5 0 .8.3.2.1.3.3.3.6v3M383.5 353v10.2h7.7c1.8 0 2.6-.8 2.6-2.2v-5.7c0-1.5-.7-2.3-2.2-2.3h-8.1zm6 18.8v6.4c0 .3-.2.5-.4.7l-.7.2h-7.2a1 1 0 0 1-.7-.3.9.9 0 0 1-.2-.7V351c0-.3 0-.5.3-.7l.7-.2h10.4c5 0 7.4 2.4 7.4 7.3v7.3c0 4.8-2.7 7.2-7.9 7.2h-1.7M420.6 371l-.3.6a1 1 0 0 1-.7.3h-11c-5 0-7.5-2.8-7.4-8.2v-12.8c0-.2 0-.4.3-.6.2-.2.4-.3.7-.3h7.2c.3 0 .5.1.7.3.2.2.3.4.3.7v14.8c0 2 1 3.1 3 3.1h4v-18c0-.2.1-.4.4-.6l.6-.3h1.2c.3 0 .5.1.7.3.2.2.3.4.3.7v20M433.2 371c0 .3 0 .5-.3.7a1 1 0 0 1-.7.2h-.6c-5.6 0-8.4-2.6-8.4-7.7v-20.6l.3-.6c.2-.2.5-.3.8-.3h1c.4 0 .6 0 .8.3l.3.6v5.8h5.7c.2 0 .5.1.7.3l.3.6v6.8c0 .2-.1.5-.3.6a1 1 0 0 1-.7.3h-5.7v6.3c0 1.8 2 2.7 5.8 2.7.3 0 .5 0 .7.3.2.2.3.4.3.7v3M436 372a1 1 0 0 1-.6-.3.8.8 0 0 1-.4-.7v-14.3c0-.2.2-.4.4-.6.2-.2.4-.3.7-.3h7.2c.2 0 .5.1.7.3l.3.6V371c0 .3-.2.5-.4.7a1 1 0 0 1-.6.2H436zm16.5 0c-.3 0-.5-.1-.7-.3a.8.8 0 0 1-.3-.6v-14.5c0-2.3-1.2-3.5-3.6-3.5H436a1 1 0 0 1-.7-.3.9.9 0 0 1-.3-.6V351c0-.3 0-.5.3-.7.2-.2.4-.3.7-.3h11.7c4.5 0 6.8 2.4 6.8 7v14c0 .2-.2.4-.4.6a1 1 0 0 1-.6.3h-1.1M466.4 371c0 .3 0 .5-.3.7a1 1 0 0 1-.7.3h-7.2a1 1 0 0 1-.7-.3.8.8 0 0 1-.3-.6v-20c0-.3.2-.5.4-.7l.6-.3h7.3c.2 0 .5.1.7.3l.3.6v20zm-3.9-24.6c0 .3-.1.5-.3.7a1 1 0 0 1-.7.2h-3.2a1 1 0 0 1-.7-.2.9.9 0 0 1-.3-.7v-2.8c0-.2 0-.5.3-.7l.7-.2h3.2c.3 0 .5 0 .7.2.2.2.3.5.3.7v2.8M486.2 371.1c0 .3-.1.5-.4.6a1 1 0 0 1-.7.3H478c-.3 0-.5-.1-.7-.3a.8.8 0 0 1-.3-.6v-7.3c0-.6-.3-1-.8-1.5-.5-.4-1.3-.6-2.4-.6H472v9.4c0 .2-.2.5-.4.6a1 1 0 0 1-.6.3h-1.3a1 1 0 0 1-.6-.3.8.8 0 0 1-.3-.6v-27.4c0-.2.1-.5.3-.7l.7-.2h7.2c.3 0 .5 0 .7.3.2.1.3.4.3.6V356l4.7-5.5.4-.3h2c.3 0 .6 0 .7.2l.3.6c0 .2 0 .4-.2.6l-6.7 7.7c2.3 0 4 .6 5.2 1.6 1.1 1 1.7 2.2 1.7 3.9v6.3"/>
</svg>
