<svg version="1" xmlns="http://www.w3.org/2000/svg" width="1402.667" height="1402.667" viewBox="0 0 1052.000000 1052.000000"><path d="M776 479.1c-25.3 3.2-47.8 11.4-67 24.2-10.7 7.1-28.3 25.2-34.8 35.9-16.3 26.5-22.2 56.8-17.7 91 5 38 22.5 67.8 53.7 91.2 18.2 13.6 35.8 23 74.3 39.6 57.6 24.8 72.5 34 80.5 50.4 8.8 17.7 5.5 38.1-8.2 51.7C834 885.7 783.5 888 749 868c-13.3-7.7-28-22.3-38.4-38.1-2.7-4.1-5-7.5-5.2-7.7-.5-.7-79.4 45.3-79.4 46.3 0 1.9 10.1 18 17 27.1 28.8 37.8 70.8 61.6 123.5 69.9 14.4 2.3 46.5 3.1 62.2 1.5 67.4-6.6 115.5-39.7 132.2-91 10.3-31.3 8.8-73-3.5-102.8-6.8-16.5-14.3-27.4-28.3-41.2-21.5-21.1-47-36-102.6-60-29.3-12.6-41-18.3-50.6-24.5-14.4-9.3-22.2-20.6-23.8-34.5-3.2-28.8 14.1-48.1 44.4-49.7 25.5-1.3 44.4 8.9 60.1 32.4 3.2 4.8 5.9 8.9 6 9.1.4.8 75.4-48.2 75.4-49.2 0-.6-2.6-5.2-5.8-10.1-25.9-39.9-60.6-61.2-108.4-66.4-11.2-1.3-38.2-1.2-47.8 0zM472.8 660.7l-.3 177.8-2.2 7.8c-3.1 10.7-6.7 16.9-13.4 23.1-14.7 13.7-46 15.5-65.8 3.9-9.8-5.7-21.4-19.4-31.1-36.6-1.7-3.1-3.6-5.7-4-5.7-.8 0-76.6 45.5-78.3 47-1.2 1 4.9 12.8 12.4 23.9 7.5 11.3 22.4 27.1 33.1 35.1 27.6 20.8 60.6 31 100.4 31 47.7 0 83.3-12.6 109-38.4 21.5-21.7 33.5-49.8 37.4-87.5.6-6.7 1-70.4 1-184.7V483h-98l-.2 177.7z"/></svg>